<svg id="Layer_1" data-name="Layer 1" xmlns="http://www.w3.org/2000/svg" xmlns:xlink="http://www.w3.org/1999/xlink" viewBox="0 0 379.84 385.55"><defs><style>.cls-1{fill:url(#linear-gradient);}.cls-2{fill:#2d307d;}.cls-3{fill:#c64327;}</style><linearGradient id="linear-gradient" x1="143.75" y1="259.72" x2="478.15" y2="438.65" gradientUnits="userSpaceOnUse"><stop offset="0" stop-color="#253081"/><stop offset="0.4" stop-color="#613d66"/><stop offset="0.8" stop-color="#bd402d"/><stop offset="0.84" stop-color="#d05429"/><stop offset="0.89" stop-color="#e46824"/><stop offset="0.95" stop-color="#f07422"/><stop offset="1" stop-color="#f47821"/></linearGradient></defs><path class="cls-1" d="M480.46,267.38C487,319,468.21,372.93,430.76,410.53c-2.54,2.54-5.17,5-7.86,7.4,3.5-7.7,4.51-14.37,7.51-30.38a217.8,217.8,0,0,0,3.8-43.61c-.16-11-.36-23.78-4.11-40.28-1.71-7.51-5.4-22.58-5.4-22.58s8.74,7.25,13.94,13.95a141.53,141.53,0,0,1,10.15,15.39A76.72,76.72,0,0,0,450.33,294a26.6,26.6,0,0,0-6.11-15.9c-2.36-2.94-8.84-7.21-8.84-7.21a36.61,36.61,0,0,1,15.38,3.15c7.36,3.53,13.69,11.56,13.69,11.56a37.8,37.8,0,0,0-7.36-19.42c-3.62-4.66-9.36-8.75-18.21-10.39-5-.93-12.16.85-12.16.85a22.43,22.43,0,0,1,6.17-8.82,59,59,0,0,1,10.44-7.08,19.58,19.58,0,0,0-15.9-1.25c-6.49,2.42-10.21,10-10.21,10s-4.82-8.17-7.85-11.19a30.55,30.55,0,0,0-10.67-6.89,31.88,31.88,0,0,0-16.34-1.56,36.37,36.37,0,0,0-7.61,2.24c-.86.34-3.64,2.06-4.45,1.92a68.66,68.66,0,0,1,28.41,12.44c2.76,2,8.63,9.55,8.63,9.55s-7.73-2.74-10.76-3.33c-3.39-.65-9.26-1.25-13.93,0-6.37,1.71-9.92,5-15,9.88,6.07-.39,9.7-1,20.11.23s14.73,3.84,14.73,3.84-7.39,1.15-14.6,12l-87-55.29a11.42,11.42,0,0,0-11.84-.85l-156.83,73.6a4.82,4.82,0,0,0,.19,8.78l30.2,13.84a4.89,4.89,0,0,1,2.93,4.43v91.93a4.64,4.64,0,0,0,.14,1.12A167,167,0,0,1,138,381.51q-2.61-4.36-4.93-8.88a160.74,160.74,0,0,1-12.56-113.1c-18.83,42.34-16.47,92.44,4.6,133.8s60.12,73.64,105.33,89.3c65,22.52,137.26,12.39,194.19-34.21C479.73,403.3,499.6,331,480.46,267.38Zm-294,165.76a2,2,0,0,0,.11-.7L186,309.5a4.9,4.9,0,0,1,2.32-4.13l100.84-65.62c4.84-2.65,6.36-4.34,10.87-2.4l83.16,50.94c-2.47,8.2-1.13,15.77.73,21.77a62.65,62.65,0,0,1,8.36-16.2l3,1.84a8.9,8.9,0,0,0,3,.9c5.4.17,6.26-7.47,2.62-9.71l-1.47-.94c6.4-5.16,16.47-8.78,16.51-8.63,2.63,11.42,9.48,47.9-.06,89.26-8.3,35.95-27.83,71.39-40.65,81.93l-2.26,1a2.87,2.87,0,0,0,0-.44l.17-110.41c0-2.66-.2-6.76,3.06-5.65l20.33,10.23c3.33,1.43,6.5-5.26,4-7.81l-4.14-2.15L317,289.68a7.09,7.09,0,0,0-4.36.49c-2.35,1.29-3.47,5.65.25,8.22l32.69,19c2.34,1.51,1.49,4.5,1.49,5.91l-.26,135.36h0a185.57,185.57,0,0,1-24.14,4.86v-138a5.27,5.27,0,0,0-5.38-5.15h-5a5.41,5.41,0,0,0-4.71,2.68L287.25,358.5a5.51,5.51,0,0,1-8.57,1.11L240.43,322a5.51,5.51,0,0,0-3.92-1.56l-22.18.27a5.27,5.27,0,0,0-5.31,5.08s-1.86,95.61-2.19,119.08c-1.71-.88-3.52-1.82-5.51-2.87C196.71,439.55,191.44,436.42,186.5,433.14Zm66.05,27.4a150.55,150.55,0,0,1-20.8-4.8l2.1-93.7c.26-4.32,5.65-6.43,9-3.51L278,389.19a5.5,5.5,0,0,0,8.38-1.41L302.73,360c4.12-5,9.83-2.9,10.65,2.52l0,101.87,1.12.06h0C293.74,466.23,273,463.79,252.55,460.54Z" transform="translate(-107.72 -108.57)"/><path class="cls-2" d="M114,214.79l6.59-10,16.3,5-11.15-12.85,6.7-10.2,3.13,2-.72,1.1a1.94,1.94,0,0,0-.43,1.48,2.63,2.63,0,0,0,1.21,1.26l12.84,8.26a4,4,0,0,0,1.12.58,1.07,1.07,0,0,0,.72-.1,2.34,2.34,0,0,0,.8-.8l.82-1.25,3.13,2-7,10.66-3.12-2,.54-.83a4.32,4.32,0,0,0,.66-1.32A1.14,1.14,0,0,0,146,207a3.36,3.36,0,0,0-1-.87l-13.91-9,15.19,17.46-2,3.07-21.58-6.45,13.75,8.84a1.53,1.53,0,0,0,.84.31,1.37,1.37,0,0,0,.71-.22,3.31,3.31,0,0,0,.79-.91l.7-1.06,3.13,2-6,9.09-3.12-2,.58-.89a3.5,3.5,0,0,0,.61-1.26,1.11,1.11,0,0,0-.18-.78,4,4,0,0,0-1.13-.94l-12.67-8.15a4.3,4.3,0,0,0-1.21-.62,1.19,1.19,0,0,0-.8.1,2.26,2.26,0,0,0-.76.8l-.8,1.22Z" transform="translate(-107.72 -108.57)"/><path class="cls-2" d="M136.49,182.68l8.59-9.71,2.81,2.42-.78.89a3,3,0,0,0-.76,1.14,1.08,1.08,0,0,0,.1.74,4.52,4.52,0,0,0,1,1.11L158.75,189a5.61,5.61,0,0,0,1.27.92.87.87,0,0,0,.69,0,2.43,2.43,0,0,0,1-.74l.94-1.06,2.81,2.43-8.59,9.71L154,197.77l.7-.79a4,4,0,0,0,.85-1.21,1,1,0,0,0-.06-.72,4,4,0,0,0-1-1l-11.31-9.73a5.06,5.06,0,0,0-1.35-.95,1.22,1.22,0,0,0-.82,0,3.34,3.34,0,0,0-1,.88l-.79.89Z" transform="translate(-107.72 -108.57)"/><path class="cls-2" d="M148.49,169l8.07-7.16L173,168.2l-6.46-7.06a5,5,0,0,0-1.14-1,1.25,1.25,0,0,0-.82-.14,3,3,0,0,0-1.06.7l-1,.86L160,158.79l8.21-7.28,2.5,2.74-.9.8a3,3,0,0,0-.83,1,1.11,1.11,0,0,0,0,.78,5.22,5.22,0,0,0,.95,1.27l14,15.29L179.81,177l-20.73-8,9.33,10.19a4.73,4.73,0,0,0,1.13,1,1.06,1.06,0,0,0,.73,0,2.89,2.89,0,0,0,1.09-.7l.95-.84,2.5,2.73-8.23,7.3-2.5-2.73.85-.76a3.56,3.56,0,0,0,.86-1,1.18,1.18,0,0,0,0-.79,2.56,2.56,0,0,0-.66-1l-10.37-11.34a3.14,3.14,0,0,0-1-.83,1.22,1.22,0,0,0-.78-.1,2.16,2.16,0,0,0-.93.58l-1.07.94Z" transform="translate(-107.72 -108.57)"/><path class="cls-2" d="M172.77,148l11-6.91,2,3.11-1,.63a3,3,0,0,0-1,.89,1.09,1.09,0,0,0-.12.75,5.42,5.42,0,0,0,.75,1.44l2.54,3.9,8.23-5.15-2.72-4.19a4,4,0,0,0-.78-1,1,1,0,0,0-.78-.25,4.45,4.45,0,0,0-1.45.7l-.86.54-2-3.1,11.07-6.93,2,3.1-.92.58a3.76,3.76,0,0,0-1.15.94,1,1,0,0,0-.14.71,5.84,5.84,0,0,0,.79,1.49l7.89,12.14a5.41,5.41,0,0,0,1.1,1.36,1.15,1.15,0,0,0,.78.17,5.56,5.56,0,0,0,1.54-.77l.64-.41,2,3.1-11.07,6.93-2-3.1.73-.46a4.61,4.61,0,0,0,1.28-1,1.05,1.05,0,0,0,.2-.78,5.11,5.11,0,0,0-.79-1.52l-3.08-4.74-8.23,5.15,3.07,4.74a7.16,7.16,0,0,0,1,1.34,1.08,1.08,0,0,0,.84.22,5.54,5.54,0,0,0,1.46-.73l.76-.48,2,3.1-11,6.91-2-3.1.75-.47a4.37,4.37,0,0,0,1.22-1,1.09,1.09,0,0,0,.22-.78,4.24,4.24,0,0,0-.68-1.35l-7.92-12.18a5.9,5.9,0,0,0-1.1-1.4,1.15,1.15,0,0,0-.76-.23,3,3,0,0,0-1.25.55l-1,.63Z" transform="translate(-107.72 -108.57)"/><path class="cls-2" d="M218.17,122.26l2.4-.81.56.76,14.29-4.85v-1l2.42-.82,6.29,7.72-3,2.32a30.07,30.07,0,0,0-2.64-2.31,8.44,8.44,0,0,0-3-1.31,3.82,3.82,0,0,0-2.08.06c-.29.1-.46.23-.52.41a1.78,1.78,0,0,0,.17,1l5.16,14.41a8.5,8.5,0,0,0,.66,1.57,1.07,1.07,0,0,0,.5.4,1.29,1.29,0,0,0,.69.05q.4-.08,2.07-.63l1.24,3.46-12.38,4.21-1.24-3.47.75-.25a5.27,5.27,0,0,0,1.53-.7,1.07,1.07,0,0,0,.34-.72,4.79,4.79,0,0,0-.39-1.67L226.8,125.4a1.46,1.46,0,0,0-.43-.74.88.88,0,0,0-.68,0,4.3,4.3,0,0,0-1.86,1.41,7.37,7.37,0,0,0-1.36,2.68,33.28,33.28,0,0,0-.54,3.35l-3.74,0Z" transform="translate(-107.72 -108.57)"/><path class="cls-2" d="M245.83,114.12l12.92-2.22.67,3.61-1.19.21a3.12,3.12,0,0,0-1.3.42,1.14,1.14,0,0,0-.41.65,5.51,5.51,0,0,0,.15,1.61l.84,4.55,9.64-1.66-.91-4.88a4.16,4.16,0,0,0-.34-1.2,1,1,0,0,0-.63-.53,4.8,4.8,0,0,0-1.62.11l-1,.17-.67-3.61,13-2.23.67,3.61-1.08.19a3.76,3.76,0,0,0-1.43.43,1,1,0,0,0-.4.61,5.37,5.37,0,0,0,.16,1.66l2.63,14.15a4.84,4.84,0,0,0,.5,1.66,1,1,0,0,0,.65.45,5.74,5.74,0,0,0,1.73-.13l.75-.13.68,3.61-13,2.22-.67-3.61.85-.14a4.81,4.81,0,0,0,1.59-.47,1.12,1.12,0,0,0,.49-.64,5.46,5.46,0,0,0-.15-1.7l-1-5.52L258.27,127l1,5.52a6.48,6.48,0,0,0,.42,1.61,1,1,0,0,0,.7.51,5.24,5.24,0,0,0,1.63-.12l.88-.15.68,3.61-12.92,2.22-.67-3.61.88-.15a4.42,4.42,0,0,0,1.51-.46,1.13,1.13,0,0,0,.5-.62,4.17,4.17,0,0,0-.11-1.51l-2.64-14.19a5.94,5.94,0,0,0-.49-1.7,1.12,1.12,0,0,0-.62-.5,3.15,3.15,0,0,0-1.36,0l-1.19.2Z" transform="translate(-107.72 -108.57)"/><path class="cls-2" d="M290.88,108.63l6.05-.06L305.39,129a5.17,5.17,0,0,0,1.21,2,3.25,3.25,0,0,0,1.88.34l.07,3.67-12.72.12-.07-3.67.77,0a2.91,2.91,0,0,0,1.48-.28.81.81,0,0,0,.41-.68A5.87,5.87,0,0,0,298,129l-.85-2.4-8.18.08-1,2.68a4.84,4.84,0,0,0-.29,1.13.88.88,0,0,0,.24.55,1.35,1.35,0,0,0,.73.35,11.52,11.52,0,0,0,1.81.06l.07,3.66-10.41.1-.07-3.66a4.53,4.53,0,0,0,1.46-.19,1.69,1.69,0,0,0,.75-.52,4.35,4.35,0,0,0,.64-1.28Zm-.53,14.27,5.34-.05L293,115.6Z" transform="translate(-107.72 -108.57)"/><path class="cls-2" d="M312.77,108.87l10.82,1.56,5.68,16.43,1.31-9.36a5,5,0,0,0,.07-1.53,1.21,1.21,0,0,0-.43-.7,3,3,0,0,0-1.23-.36l-1.3-.19.5-3.63,11,1.59-.51,3.63-1.21-.18a3,3,0,0,0-1.33,0,1.13,1.13,0,0,0-.62.48,4.83,4.83,0,0,0-.37,1.53l-2.82,20.28-5.49-.79-7.2-20.75-1.88,13.51a4.9,4.9,0,0,0-.07,1.51,1.11,1.11,0,0,0,.44.58,3.21,3.21,0,0,0,1.26.37l1.27.18-.5,3.63-11-1.59.51-3.63,1.14.17a3.69,3.69,0,0,0,1.32,0,1.23,1.23,0,0,0,.64-.48,2.67,2.67,0,0,0,.37-1.15l2.1-15a3.13,3.13,0,0,0,0-1.29,1.26,1.26,0,0,0-.43-.66,2.51,2.51,0,0,0-1.06-.34l-1.42-.2Z" transform="translate(-107.72 -108.57)"/><path class="cls-2" d="M344.88,113.88l12.55,4-1.11,3.49-1.15-.36a3.25,3.25,0,0,0-1.36-.22,1.13,1.13,0,0,0-.67.39,5.12,5.12,0,0,0-.63,1.48l-1.39,4.4,9.36,2.94,1.49-4.72a4,4,0,0,0,.26-1.21,1,1,0,0,0-.3-.75,4.56,4.56,0,0,0-1.5-.65l-1-.31,1.11-3.49,12.58,4L372,126.27l-1-.33a3.81,3.81,0,0,0-1.47-.27,1,1,0,0,0-.65.35,5.7,5.7,0,0,0-.63,1.54l-4.32,13.67a4.94,4.94,0,0,0-.35,1.69,1.07,1.07,0,0,0,.37.7,5.56,5.56,0,0,0,1.6.67l.74.23L365.16,148l-12.58-4,1.11-3.49.83.26a4.68,4.68,0,0,0,1.63.32,1.1,1.1,0,0,0,.73-.35,5,5,0,0,0,.67-1.56l1.69-5.33-9.36-3-1.69,5.33a7,7,0,0,0-.38,1.61,1,1,0,0,0,.38.78,5.13,5.13,0,0,0,1.51.63l.86.27-1.11,3.5-12.54-3.95,1.1-3.5.86.27a4.14,4.14,0,0,0,1.55.29,1.13,1.13,0,0,0,.75-.32,4.37,4.37,0,0,0,.61-1.38l4.33-13.71a5.84,5.84,0,0,0,.37-1.72,1.16,1.16,0,0,0-.31-.73,3.44,3.44,0,0,0-1.24-.59l-1.15-.36Z" transform="translate(-107.72 -108.57)"/><path class="cls-3" d="M391.08,130.86l11,6.51-1.89,3.14-.35-.2a7,7,0,0,0-1.39-.71,1,1,0,0,0-.69.05,1,1,0,0,0-.52.42,6,6,0,0,0-.47,1.62l-2.71,13.73,11.36-9a4.83,4.83,0,0,0,1-1,.86.86,0,0,0,.1-.85,3.1,3.1,0,0,0-1.2-1l-.71-.42,1.89-3.14,9,5.3-1.9,3.14a3.59,3.59,0,0,0-1.64-.64,4.69,4.69,0,0,0-2.26,1.13l-17.49,13.38L387,159.23l3.56-21.77a7.37,7.37,0,0,0,.15-1.74,1.67,1.67,0,0,0-.38-.84,3.91,3.91,0,0,0-1.15-.88Z" transform="translate(-107.72 -108.57)"/><path class="cls-3" d="M418.37,147.78l10.45,7.94-2.26,2.9-.95-.73a3.39,3.39,0,0,0-1.21-.69,1.14,1.14,0,0,0-.75.15,4.62,4.62,0,0,0-1,1.08l-9,11.57a5.48,5.48,0,0,0-.84,1.3.86.86,0,0,0,.06.67,2.58,2.58,0,0,0,.83.92l1.13.86-2.25,2.89-10.45-7.94,2.26-2.9.85.65a4.31,4.31,0,0,0,1.29.78,1.06,1.06,0,0,0,.72-.1,3.92,3.92,0,0,0,1-1l9.06-11.62a4.79,4.79,0,0,0,.87-1.39,1.17,1.17,0,0,0-.07-.8,3.3,3.3,0,0,0-1-.92l-.95-.73Z" transform="translate(-107.72 -108.57)"/><path class="cls-3" d="M432.88,158.86l9.51,9-2.57,2.63-.83-.79a4.53,4.53,0,0,0-.94-.76,1.31,1.31,0,0,0-.89,0,2.75,2.75,0,0,0-1,.75l-10.59,10.87a4.09,4.09,0,0,0-.73.86.68.68,0,0,0,0,.48,2.73,2.73,0,0,0,.67.81A10.83,10.83,0,0,0,429,185a7.79,7.79,0,0,0,3.55.41,12.7,12.7,0,0,0,4.37-1.38l1.73,3.3L429.2,192l-14.87-14.1,2.57-2.63.93.88a2.63,2.63,0,0,0,1,.67,1.43,1.43,0,0,0,.82,0,3.07,3.07,0,0,0,1-.76l10.5-10.77a3.65,3.65,0,0,0,.83-1.1,1.24,1.24,0,0,0,0-.8,2.37,2.37,0,0,0-.68-.9l-1-1Z" transform="translate(-107.72 -108.57)"/><path class="cls-3" d="M452.92,178.4l8.2,10.18-2.91,2.26-.72-.89a4.52,4.52,0,0,0-.83-.88,1.32,1.32,0,0,0-.88-.16,2.87,2.87,0,0,0-1.12.6l-12,9.34a4.13,4.13,0,0,0-.83.76.64.64,0,0,0-.05.48,3,3,0,0,0,.56.89,10.74,10.74,0,0,0,3.12,2.81,7.83,7.83,0,0,0,3.46.88,13,13,0,0,0,4.53-.78l1.26,3.49-10,3.29-12.82-15.93,2.9-2.26.8,1a2.69,2.69,0,0,0,.91.79,1.37,1.37,0,0,0,.81.11,3.07,3.07,0,0,0,1.09-.62l11.9-9.25a3.77,3.77,0,0,0,1-1,1.23,1.23,0,0,0,.16-.78,2.42,2.42,0,0,0-.55-1l-.89-1.1Z" transform="translate(-107.72 -108.57)"/><path class="cls-3" d="M475.15,208.73l3.05,5.17L464.35,231a5,5,0,0,0-1.17,2,3.15,3.15,0,0,0,.63,1.78l-3.21,1.83-6.43-10.89,3.21-1.82.41.65a2.94,2.94,0,0,0,1,1.13.84.84,0,0,0,.81,0,5.4,5.4,0,0,0,1-1l1.71-1.89-4.13-7-2.85.47a4.52,4.52,0,0,0-1.14.29.81.81,0,0,0-.37.46,1.26,1.26,0,0,0,0,.8,10.73,10.73,0,0,0,.85,1.59l-3.22,1.82-5.26-8.9,3.21-1.82a4.29,4.29,0,0,0,.9,1.16,1.83,1.83,0,0,0,.83.4,4.7,4.7,0,0,0,1.45-.06Zm-12.91,6.4,2.7,4.57,5.06-5.85Z" transform="translate(-107.72 -108.57)"/></svg>